<svg width="256" height="256" viewBox="0 0 256 256" fill="none" xmlns="http://www.w3.org/2000/svg">
<g clip-path="url(#clip0_1_3)">
<path d="M256 0H0V256H256V0Z" fill="#17191C"/>
<path d="M190 56H66C60.4772 56 56 60.4772 56 66V82C56 87.5228 60.4772 92 66 92H190C195.523 92 200 87.5228 200 82V66C200 60.4772 195.523 56 190 56Z" fill="#34393F"/>
<path d="M190 110H66C60.4772 110 56 114.477 56 120V136C56 141.523 60.4772 146 66 146H190C195.523 146 200 141.523 200 136V120C200 114.477 195.523 110 190 110Z" fill="#16BBBC"/>
<path d="M190 164H66C60.4772 164 56 168.477 56 174V190C56 195.523 60.4772 200 66 200H190C195.523 200 200 195.523 200 190V174C200 168.477 195.523 164 190 164Z" fill="#34393F"/>
</g>
<defs>
<clipPath id="clip0_1_3">
<rect width="256" height="256" fill="white"/>
</clipPath>
</defs>
</svg>
